M48
; DRILL file {KiCad (5.1.8-0-10_14)} date Wednesday, December 02, 2020 at 11:01:52 PM
; FORMAT={-:-/ absolute / inch / decimal}
; #@! TF.CreationDate,2020-12-02T23:01:52-05:00
; #@! TF.GenerationSoftware,Kicad,Pcbnew,(5.1.8-0-10_14)
; #@! TF.FileFunction,Plated,1,2,PTH
FMAT,2
INCH
T1C0.0394
T2C0.0433
%
G90
G05
T1
X5.0Y-1.6929
X5.1Y-1.6929
X5.2Y-1.6929
X5.3Y-1.6929
T2
X4.3307Y-3.1102
X4.4307Y-3.1102
X4.5307Y-3.1102
X4.6307Y-3.1102
X4.9213Y-3.1102
X5.0213Y-3.1102
X5.1213Y-3.1102
X5.2213Y-3.1102
X5.4724Y-2.4953
X5.4724Y-2.5953
X5.4724Y-2.6953
X5.4724Y-2.7953
X4.3457Y-1.7323
X4.4457Y-1.7323
X4.5457Y-1.7323
X4.6457Y-1.7323
T0
M30
