%TF.GenerationSoftware,KiCad,Pcbnew,(5.1.8-0-10_14)*%
%TF.CreationDate,2020-12-02T22:30:47-05:00*%
%TF.ProjectId,Bartender Bot PCB,42617274-656e-4646-9572-20426f742050,rev?*%
%TF.SameCoordinates,Original*%
%TF.FileFunction,Copper,L1,Top*%
%TF.FilePolarity,Positive*%
%FSLAX46Y46*%
G04 Gerber Fmt 4.6, Leading zero omitted, Abs format (unit mm)*
G04 Created by KiCad (PCBNEW (5.1.8-0-10_14)) date 2020-12-02 22:30:47*
%MOMM*%
%LPD*%
G01*
G04 APERTURE LIST*
%TA.AperFunction,ComponentPad*%
%ADD10C,2.200000*%
%TD*%
%TA.AperFunction,ComponentPad*%
%ADD11R,2.200000X2.200000*%
%TD*%
%TA.AperFunction,WasherPad*%
%ADD12C,3.302000*%
%TD*%
%TA.AperFunction,ComponentPad*%
%ADD13R,1.700000X1.700000*%
%TD*%
%TA.AperFunction,ComponentPad*%
%ADD14O,1.700000X1.700000*%
%TD*%
%TA.AperFunction,Conductor*%
%ADD15C,0.500000*%
%TD*%
G04 APERTURE END LIST*
%TO.P,U1,1*%
%TO.N,/Pump1*%
%TA.AperFunction,SMDPad,CuDef*%
G36*
G01*
X115825000Y-50895000D02*
X115825000Y-50595000D01*
G75*
G02*
X115975000Y-50445000I150000J0D01*
G01*
X117725000Y-50445000D01*
G75*
G02*
X117875000Y-50595000I0J-150000D01*
G01*
X117875000Y-50895000D01*
G75*
G02*
X117725000Y-51045000I-150000J0D01*
G01*
X115975000Y-51045000D01*
G75*
G02*
X115825000Y-50895000I0J150000D01*
G01*
G37*
%TD.AperFunction*%
%TO.P,U1,2*%
%TO.N,/Pump2*%
%TA.AperFunction,SMDPad,CuDef*%
G36*
G01*
X115825000Y-52165000D02*
X115825000Y-51865000D01*
G75*
G02*
X115975000Y-51715000I150000J0D01*
G01*
X117725000Y-51715000D01*
G75*
G02*
X117875000Y-51865000I0J-150000D01*
G01*
X117875000Y-52165000D01*
G75*
G02*
X117725000Y-52315000I-150000J0D01*
G01*
X115975000Y-52315000D01*
G75*
G02*
X115825000Y-52165000I0J150000D01*
G01*
G37*
%TD.AperFunction*%
%TO.P,U1,3*%
%TO.N,/Pump3*%
%TA.AperFunction,SMDPad,CuDef*%
G36*
G01*
X115825000Y-53435000D02*
X115825000Y-53135000D01*
G75*
G02*
X115975000Y-52985000I150000J0D01*
G01*
X117725000Y-52985000D01*
G75*
G02*
X117875000Y-53135000I0J-150000D01*
G01*
X117875000Y-53435000D01*
G75*
G02*
X117725000Y-53585000I-150000J0D01*
G01*
X115975000Y-53585000D01*
G75*
G02*
X115825000Y-53435000I0J150000D01*
G01*
G37*
%TD.AperFunction*%
%TO.P,U1,4*%
%TO.N,/Pump4*%
%TA.AperFunction,SMDPad,CuDef*%
G36*
G01*
X115825000Y-54705000D02*
X115825000Y-54405000D01*
G75*
G02*
X115975000Y-54255000I150000J0D01*
G01*
X117725000Y-54255000D01*
G75*
G02*
X117875000Y-54405000I0J-150000D01*
G01*
X117875000Y-54705000D01*
G75*
G02*
X117725000Y-54855000I-150000J0D01*
G01*
X115975000Y-54855000D01*
G75*
G02*
X115825000Y-54705000I0J150000D01*
G01*
G37*
%TD.AperFunction*%
%TO.P,U1,5*%
%TO.N,/Pump5*%
%TA.AperFunction,SMDPad,CuDef*%
G36*
G01*
X115825000Y-55975000D02*
X115825000Y-55675000D01*
G75*
G02*
X115975000Y-55525000I150000J0D01*
G01*
X117725000Y-55525000D01*
G75*
G02*
X117875000Y-55675000I0J-150000D01*
G01*
X117875000Y-55975000D01*
G75*
G02*
X117725000Y-56125000I-150000J0D01*
G01*
X115975000Y-56125000D01*
G75*
G02*
X115825000Y-55975000I0J150000D01*
G01*
G37*
%TD.AperFunction*%
%TO.P,U1,6*%
%TO.N,/Pump6*%
%TA.AperFunction,SMDPad,CuDef*%
G36*
G01*
X115825000Y-57245000D02*
X115825000Y-56945000D01*
G75*
G02*
X115975000Y-56795000I150000J0D01*
G01*
X117725000Y-56795000D01*
G75*
G02*
X117875000Y-56945000I0J-150000D01*
G01*
X117875000Y-57245000D01*
G75*
G02*
X117725000Y-57395000I-150000J0D01*
G01*
X115975000Y-57395000D01*
G75*
G02*
X115825000Y-57245000I0J150000D01*
G01*
G37*
%TD.AperFunction*%
%TO.P,U1,7*%
%TO.N,/Pump7*%
%TA.AperFunction,SMDPad,CuDef*%
G36*
G01*
X115825000Y-58515000D02*
X115825000Y-58215000D01*
G75*
G02*
X115975000Y-58065000I150000J0D01*
G01*
X117725000Y-58065000D01*
G75*
G02*
X117875000Y-58215000I0J-150000D01*
G01*
X117875000Y-58515000D01*
G75*
G02*
X117725000Y-58665000I-150000J0D01*
G01*
X115975000Y-58665000D01*
G75*
G02*
X115825000Y-58515000I0J150000D01*
G01*
G37*
%TD.AperFunction*%
%TO.P,U1,8*%
%TO.N,/Pump8*%
%TA.AperFunction,SMDPad,CuDef*%
G36*
G01*
X115825000Y-59785000D02*
X115825000Y-59485000D01*
G75*
G02*
X115975000Y-59335000I150000J0D01*
G01*
X117725000Y-59335000D01*
G75*
G02*
X117875000Y-59485000I0J-150000D01*
G01*
X117875000Y-59785000D01*
G75*
G02*
X117725000Y-59935000I-150000J0D01*
G01*
X115975000Y-59935000D01*
G75*
G02*
X115825000Y-59785000I0J150000D01*
G01*
G37*
%TD.AperFunction*%
%TO.P,U1,9*%
%TO.N,+5V*%
%TA.AperFunction,SMDPad,CuDef*%
G36*
G01*
X115825000Y-61055000D02*
X115825000Y-60755000D01*
G75*
G02*
X115975000Y-60605000I150000J0D01*
G01*
X117725000Y-60605000D01*
G75*
G02*
X117875000Y-60755000I0J-150000D01*
G01*
X117875000Y-61055000D01*
G75*
G02*
X117725000Y-61205000I-150000J0D01*
G01*
X115975000Y-61205000D01*
G75*
G02*
X115825000Y-61055000I0J150000D01*
G01*
G37*
%TD.AperFunction*%
%TO.P,U1,10*%
%TO.N,GND*%
%TA.AperFunction,SMDPad,CuDef*%
G36*
G01*
X115825000Y-62325000D02*
X115825000Y-62025000D01*
G75*
G02*
X115975000Y-61875000I150000J0D01*
G01*
X117725000Y-61875000D01*
G75*
G02*
X117875000Y-62025000I0J-150000D01*
G01*
X117875000Y-62325000D01*
G75*
G02*
X117725000Y-62475000I-150000J0D01*
G01*
X115975000Y-62475000D01*
G75*
G02*
X115825000Y-62325000I0J150000D01*
G01*
G37*
%TD.AperFunction*%
%TO.P,U1,11*%
%TO.N,Net-(U1-Pad11)*%
%TA.AperFunction,SMDPad,CuDef*%
G36*
G01*
X115825000Y-63595000D02*
X115825000Y-63295000D01*
G75*
G02*
X115975000Y-63145000I150000J0D01*
G01*
X117725000Y-63145000D01*
G75*
G02*
X117875000Y-63295000I0J-150000D01*
G01*
X117875000Y-63595000D01*
G75*
G02*
X117725000Y-63745000I-150000J0D01*
G01*
X115975000Y-63745000D01*
G75*
G02*
X115825000Y-63595000I0J150000D01*
G01*
G37*
%TD.AperFunction*%
%TO.P,U1,12*%
%TO.N,/SCK*%
%TA.AperFunction,SMDPad,CuDef*%
G36*
G01*
X115825000Y-64865000D02*
X115825000Y-64565000D01*
G75*
G02*
X115975000Y-64415000I150000J0D01*
G01*
X117725000Y-64415000D01*
G75*
G02*
X117875000Y-64565000I0J-150000D01*
G01*
X117875000Y-64865000D01*
G75*
G02*
X117725000Y-65015000I-150000J0D01*
G01*
X115975000Y-65015000D01*
G75*
G02*
X115825000Y-64865000I0J150000D01*
G01*
G37*
%TD.AperFunction*%
%TO.P,U1,13*%
%TO.N,/SDA*%
%TA.AperFunction,SMDPad,CuDef*%
G36*
G01*
X115825000Y-66135000D02*
X115825000Y-65835000D01*
G75*
G02*
X115975000Y-65685000I150000J0D01*
G01*
X117725000Y-65685000D01*
G75*
G02*
X117875000Y-65835000I0J-150000D01*
G01*
X117875000Y-66135000D01*
G75*
G02*
X117725000Y-66285000I-150000J0D01*
G01*
X115975000Y-66285000D01*
G75*
G02*
X115825000Y-66135000I0J150000D01*
G01*
G37*
%TD.AperFunction*%
%TO.P,U1,14*%
%TO.N,Net-(U1-Pad14)*%
%TA.AperFunction,SMDPad,CuDef*%
G36*
G01*
X115825000Y-67405000D02*
X115825000Y-67105000D01*
G75*
G02*
X115975000Y-66955000I150000J0D01*
G01*
X117725000Y-66955000D01*
G75*
G02*
X117875000Y-67105000I0J-150000D01*
G01*
X117875000Y-67405000D01*
G75*
G02*
X117725000Y-67555000I-150000J0D01*
G01*
X115975000Y-67555000D01*
G75*
G02*
X115825000Y-67405000I0J150000D01*
G01*
G37*
%TD.AperFunction*%
%TO.P,U1,15*%
%TO.N,GND*%
%TA.AperFunction,SMDPad,CuDef*%
G36*
G01*
X125125000Y-67405000D02*
X125125000Y-67105000D01*
G75*
G02*
X125275000Y-66955000I150000J0D01*
G01*
X127025000Y-66955000D01*
G75*
G02*
X127175000Y-67105000I0J-150000D01*
G01*
X127175000Y-67405000D01*
G75*
G02*
X127025000Y-67555000I-150000J0D01*
G01*
X125275000Y-67555000D01*
G75*
G02*
X125125000Y-67405000I0J150000D01*
G01*
G37*
%TD.AperFunction*%
%TO.P,U1,16*%
%TA.AperFunction,SMDPad,CuDef*%
G36*
G01*
X125125000Y-66135000D02*
X125125000Y-65835000D01*
G75*
G02*
X125275000Y-65685000I150000J0D01*
G01*
X127025000Y-65685000D01*
G75*
G02*
X127175000Y-65835000I0J-150000D01*
G01*
X127175000Y-66135000D01*
G75*
G02*
X127025000Y-66285000I-150000J0D01*
G01*
X125275000Y-66285000D01*
G75*
G02*
X125125000Y-66135000I0J150000D01*
G01*
G37*
%TD.AperFunction*%
%TO.P,U1,17*%
%TA.AperFunction,SMDPad,CuDef*%
G36*
G01*
X125125000Y-64865000D02*
X125125000Y-64565000D01*
G75*
G02*
X125275000Y-64415000I150000J0D01*
G01*
X127025000Y-64415000D01*
G75*
G02*
X127175000Y-64565000I0J-150000D01*
G01*
X127175000Y-64865000D01*
G75*
G02*
X127025000Y-65015000I-150000J0D01*
G01*
X125275000Y-65015000D01*
G75*
G02*
X125125000Y-64865000I0J150000D01*
G01*
G37*
%TD.AperFunction*%
%TO.P,U1,18*%
%TO.N,+5V*%
%TA.AperFunction,SMDPad,CuDef*%
G36*
G01*
X125125000Y-63595000D02*
X125125000Y-63295000D01*
G75*
G02*
X125275000Y-63145000I150000J0D01*
G01*
X127025000Y-63145000D01*
G75*
G02*
X127175000Y-63295000I0J-150000D01*
G01*
X127175000Y-63595000D01*
G75*
G02*
X127025000Y-63745000I-150000J0D01*
G01*
X125275000Y-63745000D01*
G75*
G02*
X125125000Y-63595000I0J150000D01*
G01*
G37*
%TD.AperFunction*%
%TO.P,U1,19*%
%TO.N,Net-(U1-Pad19)*%
%TA.AperFunction,SMDPad,CuDef*%
G36*
G01*
X125125000Y-62325000D02*
X125125000Y-62025000D01*
G75*
G02*
X125275000Y-61875000I150000J0D01*
G01*
X127025000Y-61875000D01*
G75*
G02*
X127175000Y-62025000I0J-150000D01*
G01*
X127175000Y-62325000D01*
G75*
G02*
X127025000Y-62475000I-150000J0D01*
G01*
X125275000Y-62475000D01*
G75*
G02*
X125125000Y-62325000I0J150000D01*
G01*
G37*
%TD.AperFunction*%
%TO.P,U1,20*%
%TO.N,Net-(U1-Pad20)*%
%TA.AperFunction,SMDPad,CuDef*%
G36*
G01*
X125125000Y-61055000D02*
X125125000Y-60755000D01*
G75*
G02*
X125275000Y-60605000I150000J0D01*
G01*
X127025000Y-60605000D01*
G75*
G02*
X127175000Y-60755000I0J-150000D01*
G01*
X127175000Y-61055000D01*
G75*
G02*
X127025000Y-61205000I-150000J0D01*
G01*
X125275000Y-61205000D01*
G75*
G02*
X125125000Y-61055000I0J150000D01*
G01*
G37*
%TD.AperFunction*%
%TO.P,U1,21*%
%TO.N,/StepA*%
%TA.AperFunction,SMDPad,CuDef*%
G36*
G01*
X125125000Y-59785000D02*
X125125000Y-59485000D01*
G75*
G02*
X125275000Y-59335000I150000J0D01*
G01*
X127025000Y-59335000D01*
G75*
G02*
X127175000Y-59485000I0J-150000D01*
G01*
X127175000Y-59785000D01*
G75*
G02*
X127025000Y-59935000I-150000J0D01*
G01*
X125275000Y-59935000D01*
G75*
G02*
X125125000Y-59785000I0J150000D01*
G01*
G37*
%TD.AperFunction*%
%TO.P,U1,22*%
%TO.N,/StepB*%
%TA.AperFunction,SMDPad,CuDef*%
G36*
G01*
X125125000Y-58515000D02*
X125125000Y-58215000D01*
G75*
G02*
X125275000Y-58065000I150000J0D01*
G01*
X127025000Y-58065000D01*
G75*
G02*
X127175000Y-58215000I0J-150000D01*
G01*
X127175000Y-58515000D01*
G75*
G02*
X127025000Y-58665000I-150000J0D01*
G01*
X125275000Y-58665000D01*
G75*
G02*
X125125000Y-58515000I0J150000D01*
G01*
G37*
%TD.AperFunction*%
%TO.P,U1,23*%
%TO.N,Net-(U1-Pad23)*%
%TA.AperFunction,SMDPad,CuDef*%
G36*
G01*
X125125000Y-57245000D02*
X125125000Y-56945000D01*
G75*
G02*
X125275000Y-56795000I150000J0D01*
G01*
X127025000Y-56795000D01*
G75*
G02*
X127175000Y-56945000I0J-150000D01*
G01*
X127175000Y-57245000D01*
G75*
G02*
X127025000Y-57395000I-150000J0D01*
G01*
X125275000Y-57395000D01*
G75*
G02*
X125125000Y-57245000I0J150000D01*
G01*
G37*
%TD.AperFunction*%
%TO.P,U1,24*%
%TO.N,Net-(U1-Pad24)*%
%TA.AperFunction,SMDPad,CuDef*%
G36*
G01*
X125125000Y-55975000D02*
X125125000Y-55675000D01*
G75*
G02*
X125275000Y-55525000I150000J0D01*
G01*
X127025000Y-55525000D01*
G75*
G02*
X127175000Y-55675000I0J-150000D01*
G01*
X127175000Y-55975000D01*
G75*
G02*
X127025000Y-56125000I-150000J0D01*
G01*
X125275000Y-56125000D01*
G75*
G02*
X125125000Y-55975000I0J150000D01*
G01*
G37*
%TD.AperFunction*%
%TO.P,U1,25*%
%TO.N,Net-(U1-Pad25)*%
%TA.AperFunction,SMDPad,CuDef*%
G36*
G01*
X125125000Y-54705000D02*
X125125000Y-54405000D01*
G75*
G02*
X125275000Y-54255000I150000J0D01*
G01*
X127025000Y-54255000D01*
G75*
G02*
X127175000Y-54405000I0J-150000D01*
G01*
X127175000Y-54705000D01*
G75*
G02*
X127025000Y-54855000I-150000J0D01*
G01*
X125275000Y-54855000D01*
G75*
G02*
X125125000Y-54705000I0J150000D01*
G01*
G37*
%TD.AperFunction*%
%TO.P,U1,26*%
%TO.N,Net-(U1-Pad26)*%
%TA.AperFunction,SMDPad,CuDef*%
G36*
G01*
X125125000Y-53435000D02*
X125125000Y-53135000D01*
G75*
G02*
X125275000Y-52985000I150000J0D01*
G01*
X127025000Y-52985000D01*
G75*
G02*
X127175000Y-53135000I0J-150000D01*
G01*
X127175000Y-53435000D01*
G75*
G02*
X127025000Y-53585000I-150000J0D01*
G01*
X125275000Y-53585000D01*
G75*
G02*
X125125000Y-53435000I0J150000D01*
G01*
G37*
%TD.AperFunction*%
%TO.P,U1,27*%
%TO.N,Net-(U1-Pad27)*%
%TA.AperFunction,SMDPad,CuDef*%
G36*
G01*
X125125000Y-52165000D02*
X125125000Y-51865000D01*
G75*
G02*
X125275000Y-51715000I150000J0D01*
G01*
X127025000Y-51715000D01*
G75*
G02*
X127175000Y-51865000I0J-150000D01*
G01*
X127175000Y-52165000D01*
G75*
G02*
X127025000Y-52315000I-150000J0D01*
G01*
X125275000Y-52315000D01*
G75*
G02*
X125125000Y-52165000I0J150000D01*
G01*
G37*
%TD.AperFunction*%
%TO.P,U1,28*%
%TO.N,Net-(U1-Pad28)*%
%TA.AperFunction,SMDPad,CuDef*%
G36*
G01*
X125125000Y-50895000D02*
X125125000Y-50595000D01*
G75*
G02*
X125275000Y-50445000I150000J0D01*
G01*
X127025000Y-50445000D01*
G75*
G02*
X127175000Y-50595000I0J-150000D01*
G01*
X127175000Y-50895000D01*
G75*
G02*
X127025000Y-51045000I-150000J0D01*
G01*
X125275000Y-51045000D01*
G75*
G02*
X125125000Y-50895000I0J150000D01*
G01*
G37*
%TD.AperFunction*%
%TD*%
D10*
%TO.P,J6,4*%
%TO.N,/SCK*%
X110380000Y-44000000D03*
%TO.P,J6,3*%
%TO.N,/SDA*%
X112920000Y-44000000D03*
%TO.P,J6,2*%
%TO.N,/StepB*%
X115460000Y-44000000D03*
D11*
%TO.P,J6,1*%
%TO.N,/StepA*%
X118000000Y-44000000D03*
%TD*%
D10*
%TO.P,J5,4*%
%TO.N,/Pump8*%
X132620000Y-79000000D03*
%TO.P,J5,3*%
%TO.N,/Pump7*%
X130080000Y-79000000D03*
%TO.P,J5,2*%
%TO.N,/Pump6*%
X127540000Y-79000000D03*
D11*
%TO.P,J5,1*%
%TO.N,/Pump5*%
X125000000Y-79000000D03*
%TD*%
D10*
%TO.P,J4,4*%
%TO.N,/Pump4*%
X117620000Y-79000000D03*
%TO.P,J4,3*%
%TO.N,/Pump3*%
X115080000Y-79000000D03*
%TO.P,J4,2*%
%TO.N,/Pump2*%
X112540000Y-79000000D03*
D11*
%TO.P,J4,1*%
%TO.N,/Pump1*%
X110000000Y-79000000D03*
%TD*%
D10*
%TO.P,J3,4*%
%TO.N,+12V*%
X139000000Y-63380000D03*
%TO.P,J3,3*%
%TO.N,GND*%
X139000000Y-65920000D03*
%TO.P,J3,2*%
X139000000Y-68460000D03*
D11*
%TO.P,J3,1*%
%TO.N,+5V*%
X139000000Y-71000000D03*
%TD*%
D12*
%TO.P,,*%
%TO.N,*%
X103000000Y-43000000D03*
%TD*%
D13*
%TO.P,J1,1*%
%TO.N,+5V*%
X127000000Y-43000000D03*
D14*
%TO.P,J1,2*%
%TO.N,GND*%
X129540000Y-43000000D03*
%TO.P,J1,3*%
%TO.N,+12V*%
X132080000Y-43000000D03*
%TO.P,J1,4*%
%TO.N,Net-(J1-Pad4)*%
X134620000Y-43000000D03*
%TD*%
D15*
%TO.N,+5V*%
X127000000Y-43000000D02*
X127000000Y-46000000D01*
X127000000Y-46000000D02*
X127000000Y-47000000D01*
X127000000Y-47000000D02*
X130000000Y-50000000D01*
X126150000Y-63445000D02*
X128555000Y-63445000D01*
X130000000Y-62000000D02*
X130000000Y-50000000D01*
X128555000Y-63445000D02*
X130000000Y-62000000D01*
X141000000Y-69000000D02*
X139000000Y-71000000D01*
X137000000Y-57000000D02*
X141000000Y-61000000D01*
X136000000Y-41000000D02*
X137000000Y-42000000D01*
X128000000Y-41000000D02*
X136000000Y-41000000D01*
X141000000Y-61000000D02*
X141000000Y-69000000D01*
X137000000Y-42000000D02*
X137000000Y-57000000D01*
X127000000Y-42000000D02*
X128000000Y-41000000D01*
X127000000Y-43000000D02*
X127000000Y-42000000D01*
%TO.N,GND*%
X116850000Y-62175000D02*
X117875000Y-62175000D01*
X129540000Y-47540000D02*
X129540000Y-43000000D01*
X131000000Y-49000000D02*
X129540000Y-47540000D01*
X131000000Y-63000000D02*
X131000000Y-49000000D01*
X129285000Y-64715000D02*
X131000000Y-63000000D01*
X126150000Y-64715000D02*
X129285000Y-64715000D01*
X139000000Y-68460000D02*
X139000000Y-65920000D01*
X139000000Y-65920000D02*
X133920000Y-65920000D01*
X133920000Y-65920000D02*
X131000000Y-63000000D01*
%TO.N,+12V*%
X135380000Y-63380000D02*
X139000000Y-63380000D01*
X132080000Y-60080000D02*
X135380000Y-63380000D01*
X132080000Y-43000000D02*
X132080000Y-60080000D01*
%TO.N,/Pump4*%
X116850000Y-54555000D02*
X115825000Y-54555000D01*
X116850000Y-54555000D02*
X112445000Y-54555000D01*
X112445000Y-54555000D02*
X111000000Y-56000000D01*
X111000000Y-56000000D02*
X111000000Y-72000000D01*
X117000000Y-74000000D02*
X118000000Y-75000000D01*
X118000000Y-75000000D02*
X118000000Y-79000000D01*
X111000000Y-72000000D02*
X113000000Y-74000000D01*
X113000000Y-74000000D02*
X117000000Y-74000000D01*
%TO.N,/Pump3*%
X116850000Y-53285000D02*
X115825000Y-53285000D01*
X115460000Y-75460000D02*
X115000000Y-75000000D01*
X115000000Y-75000000D02*
X113000000Y-75000000D01*
X110000000Y-73000000D02*
X110000000Y-55000000D01*
X111715000Y-53285000D02*
X116850000Y-53285000D01*
X110000000Y-55000000D02*
X111715000Y-53285000D01*
X115460000Y-75460000D02*
X115460000Y-79000000D01*
X113000000Y-75000000D02*
X112000000Y-75000000D01*
X112000000Y-75000000D02*
X110000000Y-73000000D01*
%TO.N,/Pump2*%
X116850000Y-52015000D02*
X115825000Y-52015000D01*
X111015000Y-52015000D02*
X116850000Y-52015000D01*
X111000000Y-52000000D02*
X111015000Y-52015000D01*
X109000000Y-54000000D02*
X111000000Y-52000000D01*
X109000000Y-54000000D02*
X109000000Y-74000000D01*
X109000000Y-74000000D02*
X111000000Y-76000000D01*
X111000000Y-76000000D02*
X112000000Y-76000000D01*
X112920000Y-76920000D02*
X112000000Y-76000000D01*
X112920000Y-79000000D02*
X112920000Y-76920000D01*
%TO.N,/Pump1*%
X116850000Y-50745000D02*
X115825000Y-50745000D01*
X110255000Y-50745000D02*
X116850000Y-50745000D01*
X108000000Y-75000000D02*
X108000000Y-53000000D01*
X108000000Y-53000000D02*
X110255000Y-50745000D01*
X110380000Y-77380000D02*
X108000000Y-75000000D01*
X110380000Y-79000000D02*
X110380000Y-77380000D01*
%TO.N,/Pump5*%
X116850000Y-55825000D02*
X113175000Y-55825000D01*
X113175000Y-55825000D02*
X112000000Y-57000000D01*
X112000000Y-57000000D02*
X112000000Y-71000000D01*
X125000000Y-79000000D02*
X125000000Y-75000000D01*
X112000000Y-71000000D02*
X114000000Y-73000000D01*
X114000000Y-73000000D02*
X123000000Y-73000000D01*
X123000000Y-73000000D02*
X125000000Y-75000000D01*
%TO.N,/Pump6*%
X127540000Y-74540000D02*
X127540000Y-79000000D01*
X125000000Y-72000000D02*
X127540000Y-74540000D01*
X116850000Y-57095000D02*
X113905000Y-57095000D01*
X115000000Y-72000000D02*
X125000000Y-72000000D01*
X113000000Y-58000000D02*
X113000000Y-70000000D01*
X113905000Y-57095000D02*
X113000000Y-58000000D01*
X113000000Y-70000000D02*
X115000000Y-72000000D01*
%TO.N,/Pump7*%
X130080000Y-74080000D02*
X130080000Y-79000000D01*
X116850000Y-58365000D02*
X114635000Y-58365000D01*
X114000000Y-69000000D02*
X116000000Y-71000000D01*
X114000000Y-59000000D02*
X114000000Y-69000000D01*
X114635000Y-58365000D02*
X114000000Y-59000000D01*
X130080000Y-74080000D02*
X127000000Y-71000000D01*
X127000000Y-71000000D02*
X116000000Y-71000000D01*
%TO.N,/Pump8*%
X116365000Y-59635000D02*
X116850000Y-59635000D01*
X115000000Y-60000000D02*
X115000000Y-68000000D01*
X115365000Y-59635000D02*
X115000000Y-60000000D01*
X116850000Y-59635000D02*
X115365000Y-59635000D01*
X117000000Y-70000000D02*
X115000000Y-68000000D01*
X117000000Y-70000000D02*
X129000000Y-70000000D01*
X132620000Y-73620000D02*
X132620000Y-79000000D01*
X129000000Y-70000000D02*
X132620000Y-73620000D01*
%TO.N,/SCK*%
X119285000Y-64715000D02*
X116850000Y-64715000D01*
X110380000Y-44000000D02*
X110380000Y-46380000D01*
X110380000Y-46380000D02*
X112000000Y-48000000D01*
X112000000Y-48000000D02*
X118000000Y-48000000D01*
X119285000Y-64715000D02*
X120000000Y-64000000D01*
X120000000Y-64000000D02*
X120000000Y-50000000D01*
X120000000Y-50000000D02*
X118000000Y-48000000D01*
%TO.N,/SDA*%
X112920000Y-45920000D02*
X112920000Y-44000000D01*
X114000000Y-47000000D02*
X112920000Y-45920000D01*
X119000000Y-47000000D02*
X114000000Y-47000000D01*
X116850000Y-65985000D02*
X119985000Y-65985000D01*
X119000000Y-47000000D02*
X121000000Y-49000000D01*
X121000000Y-49000000D02*
X121000000Y-65000000D01*
X121000000Y-65000000D02*
X120000000Y-66000000D01*
%TO.N,/StepB*%
X115460000Y-44000000D02*
X115460000Y-42540000D01*
X115460000Y-42540000D02*
X116000000Y-42000000D01*
X116000000Y-42000000D02*
X120000000Y-42000000D01*
X120000000Y-42000000D02*
X123000000Y-45000000D01*
X125125000Y-58365000D02*
X126150000Y-58365000D01*
X126150000Y-58365000D02*
X124365000Y-58365000D01*
X124365000Y-58365000D02*
X123000000Y-57000000D01*
X123000000Y-57000000D02*
X123000000Y-45000000D01*
%TO.N,/StepA*%
X122000000Y-46000000D02*
X122000000Y-58000000D01*
X123635000Y-59635000D02*
X126150000Y-59635000D01*
X120000000Y-44000000D02*
X122000000Y-46000000D01*
X122000000Y-58000000D02*
X123635000Y-59635000D01*
X118000000Y-44000000D02*
X120000000Y-44000000D01*
%TD*%
M02*
